<?xml version="1.0" standalone="no"?>
<!DOCTYPE svg PUBLIC "-//W3C//DTD SVG 20010904//EN"
 "http://www.w3.org/TR/2001/REC-SVG-20010904/DTD/svg10.dtd">
<svg version="1.0" xmlns="http://www.w3.org/2000/svg"
 width="144.000000pt" height="144.000000pt" viewBox="0 0 144.000000 144.000000"
 preserveAspectRatio="xMidYMid meet">
<metadata>
Created by potrace 1.14, written by Peter Selinger 2001-2017
</metadata>
<g transform="translate(0.000000,144.000000) scale(0.100000,-0.100000)"
fill="#000000" stroke="none">
<path d="M379 1351 c-66 -41 -100 -90 -114 -161 -2 -11 -16 -35 -31 -53 -32
-38 -54 -87 -54 -121 0 -13 -4 -26 -8 -28 -24 -10 -54 -73 -59 -126 -3 -31
-11 -71 -18 -88 -18 -39 -9 -71 25 -89 25 -13 27 -19 26 -65 -2 -59 15 -90 49
-90 22 0 24 -5 31 -68 4 -37 8 -69 9 -72 1 -3 5 -39 9 -80 5 -41 10 -82 11
-90 1 -8 6 -42 10 -76 3 -33 10 -67 15 -74 7 -11 38 -14 131 -15 106 -1 125 1
141 17 10 10 18 28 19 41 1 12 2 33 4 47 6 66 16 148 20 170 2 14 7 52 10 85
10 101 14 115 39 115 35 0 46 20 46 86 0 57 2 62 24 68 26 6 49 55 36 76 -4 7
-6 47 -3 89 5 66 2 83 -17 121 -27 53 -80 106 -170 172 -83 61 -104 95 -105
173 -1 73 -11 78 -76 36z m35 -75 c9 -61 47 -113 119 -166 139 -101 178 -154
179 -240 0 -27 -3 -54 -7 -60 -10 -16 -165 -11 -249 7 -93 21 -129 37 -176 79
-60 55 -73 137 -30 194 l18 23 16 -31 c20 -39 66 -74 139 -107 125 -55 130
-19 6 42 -108 54 -128 85 -121 191 2 21 76 112 92 112 4 0 11 -20 14 -44z
m-200 -367 c34 -50 102 -94 186 -119 81 -24 123 -29 228 -30 74 0 82 -2 82
-19 0 -17 -8 -20 -47 -23 -36 -2 -49 -7 -51 -20 -2 -13 3 -18 17 -18 19 0 21
-6 21 -55 l0 -55 -232 2 -233 3 1 50 0 50 140 2 c76 1 160 2 187 3 34 0 47 4
47 14 0 23 -21 25 -229 25 -113 0 -198 4 -203 9 -17 17 1 32 36 32 18 0 36 3
39 7 11 10 -14 33 -36 33 -18 0 -19 5 -14 54 4 41 23 96 33 96 1 0 13 -18 28
-41z m143 -406 l-27 -28 -27 28 -28 27 55 0 55 0 -28 -27z m178 1 l-28 -26
-26 26 -26 26 54 0 54 0 -28 -26z m-84 -30 l28 -26 -32 -29 -32 -29 -28 29
-29 28 24 26 c30 32 36 32 69 1z m115 -42 c-4 -3 -11 -1 -18 6 -8 8 -8 15 3
28 13 16 14 16 17 -5 2 -13 1 -25 -2 -29z m-194 -54 c17 -16 16 -18 -13 -46
l-31 -29 -24 24 c-29 29 -29 31 -1 65 23 28 29 27 69 -14z m183 -7 c6 -15 -31
-61 -50 -61 -6 0 -22 12 -34 26 l-23 26 27 29 c27 27 28 27 51 11 13 -9 26
-23 29 -31z m-105 -69 l30 -29 -30 -28 -30 -29 -30 29 -30 29 27 28 c15 15 28
28 30 28 2 0 17 -13 33 -28z m-86 -91 c30 -32 28 -36 -24 -36 -38 0 -52 24
-30 50 17 21 22 19 54 -14z m164 17 c7 -7 12 -20 12 -30 0 -15 -9 -18 -50 -18
l-51 0 31 30 c34 33 41 35 58 18z m0 -112 c-3 -20 -9 -21 -110 -21 -104 -1
-108 0 -108 21 0 20 5 21 111 21 106 0 110 -1 107 -21z"/>
<path d="M800 405 c-75 -16 -100 -28 -132 -60 -45 -45 -56 -136 -21 -183 10
-15 45 -40 77 -56 49 -25 69 -29 139 -30 119 -1 157 9 157 39 l0 24 35 -24
c59 -39 160 -51 265 -30 59 11 71 26 77 97 10 115 8 130 -23 168 -37 44 -87
62 -166 62 -68 -1 -127 -19 -162 -50 -18 -16 -19 -16 -13 0 11 30 -13 39 -138
52 -22 2 -65 -2 -95 -9z m195 -39 c7 -8 10 -28 8 -43 -5 -28 -6 -28 -72 -29
-104 0 -148 -37 -100 -85 18 -18 30 -20 89 -17 l68 3 4 -38 c2 -21 -1 -41 -7
-45 -5 -4 -46 -8 -90 -9 -136 -3 -229 42 -241 119 -17 102 86 169 251 162 57
-2 82 -7 90 -18z m310 2 c17 -9 39 -25 49 -37 22 -24 31 -97 13 -103 -7 -2
-54 -4 -104 -3 -68 0 -93 -3 -93 -12 0 -33 87 -48 157 -27 l44 13 -3 -36 c-4
-34 -7 -38 -46 -50 -56 -16 -177 -11 -224 9 -120 52 -92 220 42 255 50 14 130
9 165 -9z m-310 -116 c9 -25 -10 -34 -74 -35 -71 -1 -98 15 -66 39 27 20 132
17 140 -4z"/>
<path d="M1187 302 c-25 -28 -21 -32 28 -32 37 0 45 3 45 19 0 11 -9 21 -22
25 -32 8 -33 8 -51 -12z"/>
</g>
</svg>
