<svg width="22" height="14" viewBox="0 0 22 14" fill="none" xmlns="http://www.w3.org/2000/svg">
<path fill-rule="evenodd" clip-rule="evenodd" d="M0 1C0 0.447715 0.447715 0 1 0H21C21.5523 0 22 0.447715 22 1C22 1.55228 21.5523 2 21 2H1C0.447715 2 0 1.55228 0 1Z" fill="white"/>
<path fill-rule="evenodd" clip-rule="evenodd" d="M0 7C0 6.44772 0.447715 6 1 6H21C21.5523 6 22 6.44772 22 7C22 7.55228 21.5523 8 21 8H1C0.447715 8 0 7.55228 0 7Z" fill="white"/>
<path fill-rule="evenodd" clip-rule="evenodd" d="M0 13C0 12.4477 0.447715 12 1 12H21C21.5523 12 22 12.4477 22 13C22 13.5523 21.5523 14 21 14H1C0.447715 14 0 13.5523 0 13Z" fill="white"/>
</svg>
