<svg width="12" height="12" viewBox="0 0 12 12" fill="none" xmlns="http://www.w3.org/2000/svg">
<path d="M6.7831 6.00003L11.3887 1.39447C11.4797 1.28819 11.5272 1.15149 11.5218 1.01167C11.5164 0.871845 11.4585 0.739213 11.3595 0.640271C11.2606 0.54133 11.128 0.483367 10.9881 0.477966C10.8483 0.472566 10.7116 0.520125 10.6053 0.61114L5.99977 5.2167L1.39421 0.605584C1.2896 0.500971 1.14771 0.4422 0.999768 0.4422C0.851823 0.4422 0.709937 0.500971 0.605324 0.605584C0.50071 0.710197 0.441939 0.852083 0.441939 1.00003C0.441939 1.14797 0.50071 1.28986 0.605324 1.39447L5.21643 6.00003L0.605324 10.6056C0.547167 10.6554 0.499934 10.7167 0.466587 10.7856C0.433241 10.8545 0.414502 10.9296 0.411547 11.0061C0.408592 11.0826 0.421483 11.1589 0.449414 11.2302C0.477344 11.3015 0.51971 11.3662 0.573851 11.4204C0.627993 11.4745 0.692741 11.5169 0.764033 11.5448C0.835325 11.5728 0.91162 11.5856 0.988131 11.5827C1.06464 11.5797 1.13972 11.561 1.20864 11.5277C1.27757 11.4943 1.33885 11.4471 1.38866 11.3889L5.99977 6.78336L10.6053 11.3889C10.7116 11.4799 10.8483 11.5275 10.9881 11.5221C11.128 11.5167 11.2606 11.4587 11.3595 11.3598C11.4585 11.2608 11.5164 11.1282 11.5218 10.9884C11.5272 10.8486 11.4797 10.7119 11.3887 10.6056L6.7831 6.00003Z" fill="black"/>
</svg>
