<svg aria-hidden="true" style="position: absolute; width: 0; height: 0; overflow: hidden;" version="1.1" xmlns="http://www.w3.org/2000/svg" xmlns:xlink="http://www.w3.org/1999/xlink">
<defs>
<symbol id="arrow" viewBox="0 0 82 32">
<path d="M68.686 1.858l12.728 12.728c0.781 0.781 0.781 2.047 0 2.828l-12.728 12.728c-0.781 0.781-2.047 0.781-2.828 0s-0.781-2.047 0-2.828l9.314-9.314h-75.172v-4h75.172l-9.314-9.314c-0.781-0.781-0.781-2.047 0-2.828s2.047-0.781 2.828 0z"></path>
</symbol>
<symbol id="arrow-hover" viewBox="0 0 102 32">
<path d="M88.686 1.858l12.728 12.728c0.781 0.781 0.781 2.047 0 2.828l-12.728 12.728c-0.781 0.781-2.047 0.781-2.828 0s-0.781-2.047 0-2.828l9.314-9.314h-95.172v-4h95.172l-9.314-9.314c-0.781-0.781-0.781-2.047 0-2.828s2.047-0.781 2.828 0z"></path>
</symbol>
<symbol id="arrow-focus" viewBox="0 0 69 32">
<path d="M55.353 1.858l12.728 12.728c0.781 0.781 0.781 2.047 0 2.828l-12.728 12.728c-0.781 0.781-2.047 0.781-2.828 0s-0.781-2.047 0-2.828l9.314-9.314h-61.838v-4h61.838l-9.314-9.314c-0.781-0.781-0.781-2.047 0-2.828s2.047-0.781 2.828 0z"></path>
</symbol>
<symbol id="burger" viewBox="0 0 32 32">
<path fill="none" stroke="#fff" style="stroke: var(--color1, #fff)" stroke-linejoin="miter" stroke-linecap="round" stroke-miterlimit="4" stroke-width="2" d="M6 10h20"></path>
<path fill="none" stroke="#fff" style="stroke: var(--color1, #fff)" stroke-linejoin="miter" stroke-linecap="round" stroke-miterlimit="4" stroke-width="2" d="M6 16h20"></path>
<path fill="none" stroke="#fff" style="stroke: var(--color1, #fff)" stroke-linejoin="miter" stroke-linecap="round" stroke-miterlimit="4" stroke-width="2" d="M6 22h20"></path>
</symbol>
<symbol id="close" viewBox="0 0 32 32">
<path d="M18.088 16l12.282-12.281c0.243-0.283 0.369-0.648 0.355-1.021s-0.169-0.727-0.433-0.99c-0.264-0.264-0.617-0.418-0.99-0.433s-0.737 0.112-1.021 0.355l-12.281 12.281-12.281-12.296c-0.279-0.279-0.657-0.436-1.052-0.436s-0.773 0.157-1.052 0.436c-0.279 0.279-0.436 0.657-0.436 1.052s0.157 0.773 0.436 1.052l12.296 12.281-12.296 12.282c-0.155 0.133-0.281 0.296-0.37 0.48s-0.139 0.384-0.147 0.588c-0.008 0.204 0.026 0.407 0.101 0.598s0.187 0.363 0.332 0.507c0.144 0.144 0.317 0.257 0.507 0.332s0.394 0.109 0.598 0.101c0.204-0.008 0.404-0.058 0.588-0.147s0.347-0.215 0.48-0.37l12.296-12.281 12.281 12.281c0.283 0.243 0.648 0.37 1.021 0.355s0.727-0.169 0.99-0.433c0.264-0.264 0.418-0.618 0.433-0.99s-0.112-0.737-0.355-1.021l-12.282-12.282z"></path>
</symbol>
<symbol id="facebook" viewBox="0 0 16 32">
<path d="M14.143 15.972h-4.034v14.865h-6.112v-14.865h-2.907v-5.224h2.907v-3.381c0-2.418 1.142-6.203 6.166-6.203l4.527 0.019v5.071h-3.285c-0.539 0-1.296 0.271-1.296 1.424v3.075h4.567l-0.534 5.219z"></path>
</symbol>
<symbol id="github" viewBox="0 0 32 32">
<path d="M16 0c-8.788 0-16 7.212-16 16 0 7.499 5.262 14.312 12.25 16v-5.293c-0.692 0.152-1.33 0.156-2.034-0.052-0.946-0.279-1.714-0.909-2.284-1.869-0.364-0.613-1.008-1.278-1.68-1.23l-0.165-1.868c1.453-0.124 2.711 0.886 3.457 2.14 0.332 0.558 0.713 0.884 1.203 1.029 0.473 0.14 0.982 0.072 1.574-0.137 0.149-1.186 0.692-1.63 1.102-2.255v-0.001c-4.167-0.622-5.828-2.832-6.488-4.578-0.874-2.317-0.405-5.212 1.14-7.041 0.030-0.036 0.084-0.129 0.063-0.194-0.708-2.139 0.155-3.909 0.187-4.097 0.817 0.242 0.95-0.243 3.551 1.337l0.449 0.27c0.188 0.112 0.129 0.048 0.317 0.034 1.086-0.295 2.23-0.458 3.358-0.472 1.136 0.015 2.273 0.178 3.404 0.484l0.145 0.015c-0.013-0.002 0.040-0.009 0.127-0.062 3.248-1.968 3.132-1.324 4.003-1.608 0.032 0.188 0.883 1.987 0.182 4.099-0.095 0.291 2.816 2.956 1.203 7.235-0.659 1.746-2.32 3.957-6.487 4.578v0.001c0.534 0.814 1.176 1.247 1.173 2.927v6.608c6.988-1.688 12.25-8.501 12.25-16 0-8.788-7.212-16-16-16v0z"></path>
</symbol>
<symbol id="telegram" viewBox="0 0 44 32">
<path d="M17.346 21.048l-0.675 8.86c0.966 0 1.384-0.387 1.885-0.852l4.527-4.038 9.381 6.412c1.72 0.895 2.933 0.424 3.397-1.477l6.158-26.929 0.002-0.002c0.546-2.374-0.92-3.302-2.596-2.72l-36.194 12.933c-2.47 0.895-2.433 2.18-0.42 2.762l9.253 2.686 21.494-12.552c1.011-0.625 1.931-0.279 1.175 0.346l-17.386 14.57z"></path>
</symbol>
<symbol id="vector" viewBox="0 0 22 32">
<path d="M0.711 1.188c1.111-1.374 3.126-1.588 4.5-0.477l15.835 12.8c0.752 0.608 1.188 1.522 1.188 2.489s-0.437 1.881-1.188 2.489l-15.835 12.8c-1.374 1.111-3.389 0.898-4.5-0.477s-0.897-3.389 0.477-4.5l12.756-10.311-12.756-10.311c-1.374-1.111-1.588-3.126-0.477-4.5z"></path>
</symbol>
</defs>
</svg>
