<svg aria-hidden="true" style="position: absolute; width: 0; height: 0; overflow: hidden;" version="1.1" xmlns="http://www.w3.org/2000/svg" xmlns:xlink="http://www.w3.org/1999/xlink">
<defs>
<symbol id="arrow" viewBox="0 0 32 32">
<path d="M26.804 10.481l4.967 4.967c0.305 0.305 0.305 0.799 0 1.104l-4.967 4.967c-0.305 0.305-0.799 0.305-1.104 0s-0.305-0.799 0-1.104l3.635-3.635h-29.335v-1.561h29.335l-3.635-3.635c-0.305-0.305-0.305-0.799 0-1.104s0.799-0.305 1.104 0z"></path>
</symbol>
<symbol id="arrow-hover" viewBox="0 0 32 32">
<path d="M27.823 11.563l3.993 3.993c0.245 0.245 0.245 0.642 0 0.887l-3.993 3.993c-0.245 0.245-0.642 0.245-0.887 0s-0.245-0.642 0-0.887l2.922-2.922h-29.858v-1.255h29.858l-2.922-2.922c-0.245-0.245-0.245-0.642 0-0.887s0.642-0.245 0.887 0z"></path>
</symbol>
<symbol id="burger" viewBox="0 0 32 32">
<path  d="M0 7.273c0-0.803 0.651-1.455 1.455-1.455h29.091c0.803 0 1.455 0.651 1.455 1.455s-0.651 1.455-1.455 1.455h-29.091c-0.803 0-1.455-0.651-1.455-1.455z"></path>
<path  d="M0 16c0-0.803 0.651-1.455 1.455-1.455h29.091c0.803 0 1.455 0.651 1.455 1.455s-0.651 1.455-1.455 1.455h-29.091c-0.803 0-1.455-0.651-1.455-1.455z"></path>
<path  d="M0 24.727c0-0.803 0.651-1.455 1.455-1.455h29.091c0.803 0 1.455 0.651 1.455 1.455s-0.651 1.455-1.455 1.455h-29.091c-0.803 0-1.455-0.651-1.455-1.455z"></path>
</symbol>
<symbol id="close" viewBox="0 0 32 32">
<path d="M23.884 6.706l-7.884 7.884-7.884-7.884c-0.19-0.174-0.439-0.267-0.696-0.261s-0.502 0.11-0.684 0.292c-0.182 0.182-0.286 0.427-0.292 0.684s0.088 0.506 0.261 0.696l7.88 7.884-7.882 7.882c-0.096 0.092-0.173 0.202-0.226 0.324s-0.081 0.253-0.083 0.386 0.023 0.265 0.073 0.388c0.050 0.123 0.124 0.235 0.218 0.329s0.206 0.169 0.329 0.219 0.255 0.075 0.388 0.074c0.133-0.002 0.264-0.029 0.386-0.082s0.232-0.13 0.324-0.226l7.886-7.882 7.884 7.884c0.19 0.174 0.439 0.267 0.696 0.262s0.502-0.11 0.684-0.292c0.182-0.182 0.286-0.427 0.292-0.684s-0.088-0.506-0.262-0.696l-7.884-7.884 7.884-7.886c0.096-0.092 0.173-0.202 0.226-0.324s0.081-0.253 0.083-0.386c0.002-0.133-0.023-0.265-0.073-0.388s-0.124-0.235-0.218-0.329c-0.094-0.094-0.206-0.169-0.329-0.219s-0.255-0.075-0.388-0.074-0.264 0.029-0.386 0.082c-0.122 0.053-0.232 0.13-0.324 0.226v0.002z"></path>
</symbol>
<symbol id="facebook" viewBox="0 0 32 32">
<path  d="M16 32c8.837 0 16-7.163 16-16s-7.163-16-16-16c-8.837 0-16 7.163-16 16s7.163 16 16 16z"></path>
<path  d="M20.446 15.982h-2.61v9.619h-3.955v-9.619h-1.881v-3.38h1.881v-2.187c0-1.564 0.739-4.014 3.99-4.014l2.929 0.012v3.281h-2.125c-0.349 0-0.839 0.175-0.839 0.921v1.989h2.955l-0.346 3.377z"></path>
</symbol>
<symbol id="github" viewBox="0 0 32 32">
<path  d="M32 16c0 8.837-7.163 16-16 16s-16-7.163-16-16c0-8.837 7.163-16 16-16s16 7.163 16 16z"></path>
<path  d="M16 6.588c-5.169 0-9.412 4.242-9.412 9.412 0 4.411 3.095 8.419 7.206 9.412v-3.114c-0.407 0.089-0.782 0.092-1.197-0.030-0.556-0.164-1.008-0.535-1.344-1.1-0.214-0.361-0.593-0.752-0.988-0.723l-0.097-1.099c0.855-0.073 1.595 0.521 2.034 1.259 0.195 0.328 0.419 0.52 0.708 0.605 0.278 0.082 0.578 0.043 0.926-0.080 0.088-0.698 0.407-0.959 0.648-1.326v-0.001c-2.451-0.366-3.428-1.666-3.816-2.693-0.514-1.363-0.238-3.066 0.671-4.142 0.018-0.021 0.050-0.076 0.037-0.114-0.417-1.258 0.091-2.299 0.11-2.41 0.481 0.142 0.559-0.143 2.089 0.786l0.264 0.159c0.111 0.066 0.076 0.028 0.186 0.020 0.639-0.173 1.312-0.269 1.975-0.278 0.668 0.009 1.337 0.104 2.002 0.285l0.086 0.009c-0.007-0.001 0.023-0.005 0.075-0.036 1.911-1.157 1.842-0.779 2.355-0.946 0.019 0.111 0.519 1.169 0.107 2.411-0.056 0.171 1.657 1.739 0.708 4.256-0.388 1.027-1.365 2.328-3.816 2.693v0.001c0.314 0.479 0.692 0.734 0.69 1.722v3.887c4.111-0.993 7.206-5 7.206-9.412 0-5.169-4.242-9.412-9.412-9.412v0z"></path>
</symbol>
<symbol id="telegram" viewBox="0 0 32 32">
<path  d="M32 16c0 8.837-7.163 16-16 16s-16-7.163-16-16c0-8.837 7.163-16 16-16s16 7.163 16 16z"></path>
<path  d="M12.869 18.375l-0.318 4.169c0.454 0 0.651-0.182 0.887-0.401l2.13-1.9 4.415 3.017c0.81 0.421 1.38 0.199 1.598-0.695l2.898-12.672 0.001-0.001c0.257-1.117-0.433-1.554-1.222-1.28l-17.032 6.086c-1.162 0.421-1.145 1.026-0.198 1.3l4.354 1.264 10.115-5.907c0.476-0.294 0.909-0.131 0.553 0.163l-8.182 6.857z"></path>
</symbol>
<symbol id="vector" viewBox="0 0 32 32">
<path d="M5.676 1.188c1.111-1.374 3.126-1.588 4.5-0.477l15.835 12.8c0.752 0.608 1.188 1.522 1.188 2.489s-0.437 1.881-1.188 2.489l-15.835 12.8c-1.374 1.111-3.389 0.898-4.5-0.477s-0.897-3.389 0.477-4.5l12.756-10.311-12.756-10.311c-1.374-1.111-1.588-3.126-0.477-4.5z"></path>
</symbol>
</defs>
</svg>
