<?xml version="1.0" encoding="UTF-8"?>
<!DOCTYPE svg PUBLIC "-//W3C//DTD SVG 1.1//EN" "http://www.w3.org/Graphics/SVG/1.1/DTD/svg11.dtd">
<!-- Creator: CorelDRAW -->
<svg xmlns="http://www.w3.org/2000/svg" xml:space="preserve" width="3.898mm" height="6.1229mm" version="1.1" style="shape-rendering:geometricPrecision; text-rendering:geometricPrecision; image-rendering:optimizeQuality; fill-rule:evenodd; clip-rule:evenodd"
viewBox="0 0 25.82 40.55"
 xmlns:xlink="http://www.w3.org/1999/xlink"
 xmlns:xodm="http://www.corel.com/coreldraw/odm/2003">
 <defs>
  <style type="text/css">
   <![CDATA[
    .fil0 {fill:black}
   ]]>
  </style>
 </defs>
 <g id="Layer_x0020_1">
  <metadata id="CorelCorpID_0Corel-Layer"/>
  <g id="_1598146165248">
   <path class="fil0" d="M12.91 6.86l-8.06 8.06c-1.11,1.11 -2.91,1.11 -4.02,0 -1.11,-1.11 -1.11,-2.91 0,-4.02l10.12 -10.12 0.11 -0.1 0.11 -0.09 0.11 -0.08 0.12 -0.08 0.12 -0.07 0.14 -0.07 0.11 -0.05 0.13 -0.05 0.13 -0.05 0.12 -0.04 0.07 -0.02 0.13 -0.03 0.14 -0.02 0.13 -0.02 0.14 -0.01 0.14 -0 0.14 0 0.14 0.01 0.13 0.02 0.14 0.02 0.13 0.03 0.15 0.04 0.12 0.04 0.12 0.05 0.12 0.05 0.15 0.07 0.1 0.06 0.12 0.08 0.12 0.08 0.11 0.09 0.11 0.09 0.1 0.09 10.07 10.08c1.11,1.11 1.11,2.91 0,4.02 -1.11,1.11 -2.91,1.11 -4.02,0l-8.06 -8.06z"/>
   <path class="fil0" d="M12.91 19.26l-8.06 8.06c-1.11,1.11 -2.91,1.11 -4.02,0 -1.11,-1.11 -1.11,-2.91 0,-4.02l10.12 -10.12 0.11 -0.1 0.11 -0.09 0.11 -0.08 0.12 -0.08 0.12 -0.07 0.14 -0.07 0.11 -0.05 0.13 -0.05 0.13 -0.05 0.12 -0.04 0.07 -0.02 0.13 -0.03 0.14 -0.02 0.13 -0.02 0.14 -0.01 0.14 -0 0.14 0 0.14 0.01 0.13 0.02 0.14 0.02 0.13 0.03 0.15 0.04 0.12 0.04 0.12 0.05 0.12 0.05 0.15 0.07 0.1 0.06 0.12 0.08 0.12 0.08 0.11 0.09 0.11 0.09 0.1 0.09 10.07 10.08c1.11,1.11 1.11,2.91 0,4.02 -1.11,1.11 -2.91,1.11 -4.02,0l-8.06 -8.06z"/>
   <path class="fil0" d="M12.91 31.66l-8.06 8.06c-1.11,1.11 -2.91,1.11 -4.02,0 -1.11,-1.11 -1.11,-2.91 0,-4.02l10.12 -10.12 0.11 -0.1 0.11 -0.09 0.11 -0.08 0.12 -0.08 0.12 -0.07 0.14 -0.07 0.11 -0.05 0.13 -0.05 0.13 -0.05 0.12 -0.04 0.07 -0.02 0.13 -0.03 0.14 -0.02 0.13 -0.02 0.14 -0.01 0.14 -0 0.14 0 0.14 0.01 0.13 0.02 0.14 0.02 0.13 0.03 0.15 0.04 0.12 0.04 0.12 0.05 0.12 0.05 0.15 0.07 0.1 0.06 0.12 0.08 0.12 0.08 0.11 0.09 0.11 0.09 0.1 0.09 10.07 10.08c1.11,1.11 1.11,2.91 0,4.02 -1.11,1.11 -2.91,1.11 -4.02,0l-8.06 -8.06z"/>
  </g>
 </g>
</svg>
